<?xml version="1.0" encoding="utf-8"?>
<!-- Generator: Adobe Illustrator 24.0.1, SVG Export Plug-In . SVG Version: 6.00 Build 0)  -->
<svg version="1.1" id="Layer_1" xmlns="http://www.w3.org/2000/svg" xmlns:xlink="http://www.w3.org/1999/xlink" x="0px" y="0px"
	 viewBox="0 0 1920 459.1" style="enable-background:new 0 0 1920 459.1;" xml:space="preserve">
<style type="text/css">
	.st0{fill:#737272;}
	.st1{fill:#CB3233;}
</style>
<g id="Group_4" transform="translate(-112.127 -72.229)">
	<g id="Group_2" transform="translate(112.127 85.503)">
		<path id="Path_3_1_" class="st0" d="M138.8,95.2H80.9v109.4h52V239h-52v140.4H40.7V60.9h98.1V95.2z"/>
		<path id="Path_4_1_" class="st0" d="M183.2,297.3l-8,82.2H135l38.1-318.6H231l39,318.6h-41.9l-8-82.2H183.2z M201.7,102.4
			l-15.5,160.5h31L201.7,102.4z"/>
		<path id="Path_5_1_" class="st0" d="M287.6,60.9h43.6l46.1,220.9V60.9h36.5v318.6h-43.6L324,161.9v217.5h-36.5L287.6,60.9z"/>
		<path id="Path_6_1_" class="st0" d="M509.7,94.4v285h-40.2v-285h-38.1V60.9h116.5v33.5H509.7z"/>
		<path id="Path_7_1_" class="st0" d="M582.7,297.3l-8,82.2h-40.2l38.1-318.6h57.8l39,318.6h-41.9l-8-82.2H582.7z M601.1,102.4
			l-15.5,160.5h31L601.1,102.4z"/>
		<path id="Path_8_1_" class="st0" d="M751.2,102.8l-8.4-8.4h-14.7l-8.4,8.4v89.7l8.4,8.4h39.4l25.2,25.1v128.3l-25.2,25.1h-63.7
			l-25.1-25.1v-66.6h40.2v49.9l8.4,8.4H744l8.4-8.4v-93.9l-8.4-8.4h-39.4l-25.1-25.1V86l25.1-25.1h61.6L791.4,86v67.1h-40.2V102.8z"
			/>
		<path id="Path_9_1_" class="st0" d="M850.9,379.4V275.1L802.3,60.9h43.2l25.2,156.3l25.1-156.3h43.2l-48.6,214.2v104.4H850.9z"/>
		<path id="Path_10_1_" d="M1019.4,60.9h91l25.1,25.1v140.8l-25.1,25.2h-50.7v127.4h-40.2V60.9z M1095.3,210.1V102.8l-8.4-8.4h-27.2
			v124.1h27.2L1095.3,210.1z"/>
		<path id="Path_11_1_" d="M1401.9,60.9h40.2v318.6h-40.2V60.9z"/>
		<path id="Path_12_1_" d="M1469.8,60.9h43.6l46.1,220.9V60.9h36.5v318.6h-43.6l-46.1-217.5v217.5h-36.5V60.9z"/>
		<path id="Path_13_1_" d="M1692,94.4v285h-40.2v-285h-38.1V60.9h116.5v33.5H1692z"/>
		<path id="Path_14_1_" d="M1814.8,102.8l-8.4-8.4h-14.7l-8.4,8.4v89.7l8.4,8.4h39.4l25.1,25.1v128.3l-25.1,25.1h-63.7l-25.2-25.1
			v-66.6h40.2v49.9l8.4,8.4h16.8l8.4-8.4v-93.9l-8.4-8.4h-39.4l-25.1-25.1V86l25.1-25.1h61.6L1855,86v67.1h-40.2V102.8z"/>
	</g>
	<g id="Group_3" transform="translate(442.422 72.229)">
		<path id="Path_15" class="st0" d="M1044.7,206.5c-6.2,7.8-13.9,14.3-22.6,19.1c-5.7,3.2-11.8,6-18,8.3c0,0.7,0.1,1.4,0.1,2.2
			c-0.3,35.7-29.5,64.4-65.2,64.1c-24,0.1-46.1-13-57.6-34.1c-15.4,7.6-26.3,17.9-31.8,33.7c3.5,4.8,7.4,9.3,11.6,13.4l77.8,76.5
			l77.8-76.5C1045.2,285.6,1055.9,244.5,1044.7,206.5z"/>
		<path id="Path_16" class="st1" d="M1002.8,68.2c-31.7,16.2,1.2,47.4-35,68.9c19.8-46.2-36.7-61.2-17.3-107.7
			c-70.1,44.5-9.1,78.8-61.1,119.1c12.7-29,1.5-58.3-33.9-65.6c16.1,43.1-57.5,127.2-18.9,190.6c6.9-10,16-18.4,26.5-24.6
			c3.9-2.4,8-4.5,12.2-6.4c-0.2-2.1-0.3-4.2-0.3-6.3c0.7-36.1,30.6-64.8,66.7-64c25,0.5,47.5,15.2,58,37.9
			c16.7-6.7,28.2-16,33.5-31.1C1046.5,136.3,1001.1,108.1,1002.8,68.2z"/>
	</g>
</g>
</svg>
